<svg xmlns="http://www.w3.org/2000/svg" viewBox="0 0 1200 630" role="img" aria-labelledby="title desc">
  <title id="title">Project Takeoff Cover</title>
  <desc id="desc">Educational drone project cover art with flight path and geometric guidance.</desc>

  <defs>
    <linearGradient id="bg" x1="0%" x2="100%" y1="0%" y2="100%">
      <stop offset="0%" stop-color="#0f172a" />
      <stop offset="45%" stop-color="#111827" />
      <stop offset="100%" stop-color="#1f2937" />
    </linearGradient>
    <linearGradient id="accent" x1="0%" x2="100%" y1="0%" y2="0%">
      <stop offset="0%" stop-color="#ef4444" />
      <stop offset="100%" stop-color="#f87171" />
    </linearGradient>
    <filter id="softGlow" x="-20%" y="-20%" width="140%" height="140%">
      <feGaussianBlur in="SourceGraphic" stdDeviation="2.6" />
    </filter>
  </defs>

  <rect x="0" y="0" width="1200" height="630" fill="url(#bg)" />

  <g opacity="0.16" stroke="#94a3b8" stroke-width="1">
    <line x1="0" y1="90" x2="1200" y2="90" />
    <line x1="0" y1="180" x2="1200" y2="180" />
    <line x1="0" y1="270" x2="1200" y2="270" />
    <line x1="0" y1="360" x2="1200" y2="360" />
    <line x1="0" y1="450" x2="1200" y2="450" />
    <line x1="0" y1="540" x2="1200" y2="540" />
    <line x1="150" y1="0" x2="150" y2="630" />
    <line x1="300" y1="0" x2="300" y2="630" />
    <line x1="450" y1="0" x2="450" y2="630" />
    <line x1="600" y1="0" x2="600" y2="630" />
    <line x1="750" y1="0" x2="750" y2="630" />
    <line x1="900" y1="0" x2="900" y2="630" />
    <line x1="1050" y1="0" x2="1050" y2="630" />
  </g>

  <g fill="none" stroke-linecap="round" stroke-linejoin="round">
    <rect x="108" y="136" width="430" height="360" rx="16" stroke="#e2e8f0" stroke-width="2" opacity="0.6" />
    <path d="M168 420 L298 420 L298 290 L438 290 L438 168" stroke="url(#accent)" stroke-width="9" />
    <circle cx="168" cy="420" r="10" fill="#ef4444" />
    <circle cx="298" cy="420" r="10" fill="#ef4444" />
    <circle cx="298" cy="290" r="10" fill="#ef4444" />
    <circle cx="438" cy="290" r="10" fill="#ef4444" />
    <circle cx="438" cy="168" r="10" fill="#ef4444" />

    <path d="M646 452 L760 256 L874 452 Z" stroke="#60a5fa" stroke-width="7" />
    <path d="M918 456 L1068 456 L1068 306 L918 306 Z" stroke="#34d399" stroke-width="7" />
    <circle cx="760" cy="196" r="68" stroke="#fbbf24" stroke-width="7" />
  </g>

  <g transform="translate(575 130)">
    <circle cx="160" cy="86" r="26" fill="#93c5fd" opacity="0.2" />
    <circle cx="298" cy="86" r="26" fill="#93c5fd" opacity="0.2" />
    <circle cx="160" cy="224" r="26" fill="#93c5fd" opacity="0.2" />
    <circle cx="298" cy="224" r="26" fill="#93c5fd" opacity="0.2" />
    <path d="M228 94 L268 122 L256 178 L202 194 L176 152 L194 112 Z" fill="#e2e8f0" />
    <path d="M216 106 L248 126 L240 170 L207 180 L188 151 L198 122 Z" fill="#1e293b" />
    <path d="M136 86 L191 125 M265 125 L322 86 M139 224 L194 186 M261 186 L319 224" stroke="#e2e8f0" stroke-width="7" />
  </g>

  <g transform="translate(76 72)">
    <text x="0" y="0" fill="#fca5a5" font-family="Segoe UI, Arial, sans-serif" font-size="24" font-weight="700" letter-spacing="3">
      EDUCATIONAL DRONE PROJECT
    </text>
    <text x="0" y="96" fill="#ffffff" font-family="Segoe UI, Arial, sans-serif" font-size="94" font-weight="800" letter-spacing="2">
      PROJECT TAKEOFF
    </text>
    <text x="0" y="144" fill="#cbd5e1" font-family="Segoe UI, Arial, sans-serif" font-size="28" font-weight="500">
      Boundary-aware flight planning to teach geometry with Tello SDK commands
    </text>
  </g>

  <g transform="translate(960 528)">
    <rect x="0" y="-42" width="202" height="52" rx="10" fill="#111827" opacity="0.62" />
    <text x="16" y="-9" fill="#f8fafc" font-family="Segoe UI, Arial, sans-serif" font-size="26" font-weight="700">
      command . takeoff . run
    </text>
  </g>

  <g filter="url(#softGlow)" opacity="0.4">
    <circle cx="1048" cy="140" r="58" fill="#ef4444" />
    <circle cx="220" cy="560" r="52" fill="#3b82f6" />
  </g>
</svg>
