<?xml version="1.0" encoding="UTF-8"?>
<svg id="Layer_1" data-name="Layer 1" xmlns="http://www.w3.org/2000/svg" viewBox="0 0 1056.69 660.47">
  <defs>
    <style>
      .cls-1 {
        fill: #010101;
      }

      .cls-1, .cls-2, .cls-3 {
        stroke-width: 0px;
      }

      .cls-2 {
        fill: #415a77;
      }

      .cls-3 {
        fill: #1b263b;
      }
    </style>
  </defs>
  <path class="cls-3" d="M483.44,364.06c-12-5.71-25.49-9.83-39.21-11.99-10.52-1.59-22.41-2.44-32.58.66-8.8,2.62-13.38,8.99-17.38,15.64-3.32,5.62-3.54,10.58.23,16.2,11.09,16.3,37.61,25.76,58.53,30.07,12.12,2.53,26.07,4.12,38.18.94,9.15-2.44,14.4-8.8,18.41-15.64-1.14,1.78-2.4,3.47-3.77,5.06-.23.28-3.66,4.31-2.52,1.69.69-1.5.8-3.09.57-4.68-1.14.47-2.29.84-3.43,1.22-4,1.12-8.35,1.59-12.69,1.78-8.57.28-17.15-.66-25.49-2.34-1.6-.28-3.09-.66-4.69-1.03-10.4-2.44-21.26-5.99-30.98-10.87-7.43-3.75-14.29-8.24-19.66-13.68-3.66-3.65-5.6-7.02-6.4-11.24-1.26.47-2.52,1.59-3.66,1.97-.34.09-.69.47-1.03.75.46-.66,1.26-1.78,2.4-3.37,1.37-1.97,2.06-3.09,2.4-3.56-.23.37-.46,1.03-.46,1.5.11.94.23,1.87.34,2.72h0c3.89-1.59,8.35-2.25,12.58-2.62,8.57-.66,17.38,0,26.07,1.5,5.26-3.18,12.58-3.84,18.86-2.81,10.4,1.69,20.69,8.24,21.61,16.77,6.4,3.37,12.46,7.4,17.38,12.27,2.97,3,6.17,7.02,6.75,11.05.57-.19,1.03-.47,1.6-.75.91-.47,1.49-.94,1.94-1.31h0c.8-1.03,1.6-2.06,2.52-2.9,1.71-1.69,2.29-1.69,1.03.47-.46.75-.91,1.59-1.37,2.34.69-1.12,1.37-2.25,1.83-3.37,6.29-14.05-15.32-26.41-27.89-32.41ZM395.87,368.56c-1.26,1.87-.69.94,0,0h0ZM400.79,361.53c0-.09.11-.19.11-.19,0,0-.11.09-.11.19Z"/>
  <path class="cls-3" d="M905.19,282.36c-7.2-1.69-16.23-.47-23.66-.47h-296.09c-7.09,0-14.18.19-21.26-.37-19.32-1.5-38.18-6.18-55.9-12.55-12.69-4.59-25.95-9.65-36.47-17.14-26.07-18.73-52.02-37.47-78.08-56.2-35.67-25.66-71.45-51.42-107.12-77.09-10.97-7.87-21.95-15.74-32.92-23.7-6.4-4.59-15.09-9.83-23.55-4.96-6.63,3.84-10.97,11.9-14.63,17.42-2.97,4.4-5.94,9.09-6.86,14.14-1.26,6.74.34,13.86,1.94,20.42,4.57,18.26,13.03,35.97,21.61,53.11,5.6,11.24,11.2,22.76,18.18,33.53,2.86,4.5,6.52,8.71,9.6,13.11,6.17,8.8,12,17.89,17.15,27.16,5.94,10.58,11.32,21.54,14.52,32.97,1.49,5.06,2.52,10.3,2.63,15.55,0,1.31,0,2.72-.23,4.03-3.54,2.53-7.2,4.96-11.09,7.21-10.63,6.37-21.72,12.18-33.04,17.61-24.58,11.99-50.07,22.67-75.57,33.25-10.06,4.12-20.01,8.24-30.07,12.46-5.83,2.44-13.03,4.78-17.61,8.8-5.37,4.78-31.9,35.59-8.35,36.34,3.2.09,6.4-.09,9.6-.09,18.06-.19,36.01-.47,54.07-.66,45.73-.56,91.46-1.12,137.07-1.69,5.94-.09,11.89-.19,17.83-.19,6.52-.09,12.8.75,13.72,7.31,1.83,12.18,9.37,24.63,24.01,29.41,13.83,4.59,30.07,4.12,44.59,3.09,6.63-.47,13.26-1.12,19.78-1.97,5.83-.75,12.46-2.9,17.83-.09,2.86,1.5,5.49,3.37,8.23,5.06,16.46,10.12,33.04,20.23,49.5,30.35,18.63,11.43,37.38,22.85,56.02,34.38,8.35,5.06,27.32,20.7,37.84,13.11,5.72-4.12,9.83-10.96,13.38-16.3,2.74-4.12,6.63-9.09,6.17-13.86-.46-4.21-2.63-8.71-3.77-12.83-1.37-4.59-2.63-9.18-3.89-13.77-4-14.89-7.2-29.97-8.8-45.24-1.49-14.24-1.49-29.88,2.4-43.37h0c.57-.28,1.14-.56,1.71-.84.23-.09,1.03-.37,1.26-.47h0c3.09-1.03,6.4-1.78,9.49-2.72,40.81-13.02,81.63-25.95,122.44-38.87,42.64-13.58,85.86-26.23,128.27-40.46,6.4-2.15,13.26-4.5,18.29-8.62,4.34-3.65,7.66-8.24,10.63-12.64,2.86-4.03,6.06-8.34,7.66-12.93,2.06-5.25-3.2-8.06-8.46-9.74ZM608.07,414.15c0-.09.11-.19.34-.28-.11.09-.23.28-.34.28ZM831.46,321.61c-45.5,14.33-91,28.85-136.5,43.27-19.43,6.18-38.87,13.3-58.76,18.55-5.49,1.4-9.6,4.03-13.38,7.59-7.32,6.93-13.15,15.45-18.06,23.6-3.66,6.09-6.63,12.36-8.46,18.92-4.8,17.14-3.32,35.31-.8,52.55,2.06,14.05,5.26,28.01,9.15,41.87-9.03-5.15-17.61-10.87-26.41-16.3-17.38-10.68-34.75-21.36-52.13-31.94-14.52-8.9-29.15-17.89-43.67-26.79-2.63-1.69-5.37-3.47-8.12-4.96-4.34-2.25-8.35-1.31-13.03-.56-5.49.84-11.09,1.5-16.69,2.06-13.6,1.31-27.67,1.97-41.27.09-14.63-2.06-25.38-8.43-31.78-19.76-1.37-2.34-2.4-4.87-2.97-7.49s-.11-5.62-1.71-8.06c-1.83-2.81-5.26-3.93-8.92-4.03-3.2-.09-6.52.09-9.83.09-38.07.47-76.14.94-114.32,1.4-32.24.37-64.48,1.03-96.72,1.22h-1.37c9.6-4.03,19.21-7.96,28.81-11.9,27.55-11.43,54.99-23.14,81.17-36.53,10.97-5.62,21.95-11.61,31.9-18.55,12.8-9.09,22.29-20.98,29.27-33.63,11.78-21.26-.57-45.99-11.43-65.85-5.49-10.02-11.78-19.86-18.52-29.41-3.09-4.4-6.75-8.71-9.6-13.3-7.77-12.55-14.4-25.76-20.81-38.87-8-16.49-16.46-33.81-19.78-51.52,1.83.56,3.43,1.31,4.69,2.15,25.72,17.42,50.3,36.16,75.45,54.23,38.18,27.44,76.25,54.89,114.44,82.33,10.97,7.87,21.95,15.83,32.92,23.7,11.78,8.52,26.87,14.14,41.27,19.01,19.66,6.65,40.81,11.24,62.19,11.52,4.23,0,8.57-.09,12.92-.09h310.38c-16.69,4.96-33.04,10.21-49.5,15.36Z"/>
  <g>
    <path class="cls-3" d="M400.67,361.63c-.23.37-.46,1.03-.46,1.5.11.94.23,1.87.34,2.72-1.26.47-2.52,1.59-3.66,1.97-.34.09-.69.47-1.03.75.46-.66,1.26-1.78,2.4-3.37,1.49-1.97,2.17-3,2.4-3.56Z"/>
    <path class="cls-3" d="M510.99,397.59c-.46.75-.91,1.59-1.37,2.34-1.14,1.78-2.4,3.47-3.77,5.06-.23.28-3.66,4.31-2.52,1.69.69-1.5.8-3.09.57-4.68.57-.19,1.03-.47,1.6-.75.91-.47,1.49-.94,1.94-1.31h0c.8-1.03,1.6-2.06,2.52-2.9,1.71-1.69,2.29-1.59,1.03.56Z"/>
  </g>
  <path class="cls-3" d="M479.78,378.67c-.91-8.52-11.2-15.08-21.61-16.77-6.29-1.03-13.6-.47-18.86,2.81-.34.19-.57.37-.8.56-5.26,3.65-9.26,9.93-11.78,15.08-1.71,3.75-1.6,7.31-.11,10.4,9.72,4.87,20.58,8.43,30.98,10.87,1.49.37,3.09.75,4.69,1.03,1.26-.47,2.4-.94,3.43-1.59,4.92-2.9,8.35-7.87,10.97-12.46h0c.8-1.22,1.6-2.53,2.06-3.84,1.03-2.06,1.26-4.12,1.03-6.09ZM470.07,390.76c-2.4.75-4.92,1.22-7.43,1.22-5.03.19-9.95-.75-14.4-2.62-4.34-1.69-8.23-4.31-10.97-7.59-1.14-1.4-2.17-3-2.74-4.68-.11-.56-.34-1.12-.34-1.69.46-.19.8-.37,1.26-.56,2.4-.75,4.92-1.12,7.43-1.22,5.26-.19,10.63.94,15.2,2.9,6.06,2.62,12.46,7.77,13.26,13.68-.34.19-.8.37-1.26.56Z"/>
  <g>
    <path class="cls-3" d="M104.14,76.01c-.11.09-.23.37-.46.75-1.26,1.31-2.63,2.62.46-.75Z"/>
    <path class="cls-3" d="M195.14,256.69c-.23.09-.46.09-.69.09.23.09.46,0,.69-.09Z"/>
    <path class="cls-3" d="M200.17,251.82c-1.6,2.25-3.43,4.31-4.8,4.87,1.14-.66,2.86-2.44,4.8-4.87Z"/>
    <path class="cls-3" d="M200.28,251.64c2.06-2.72,3.77-5.53,4.34-6.28.57-.84,7.66-11.8,7.2-12.83.57,1.12-6.17,12.27-11.55,19.11Z"/>
    <path class="cls-3" d="M473.63,139.71c-11.09-42.06-33.04-81.86-75.45-108.75C356.9,4.83,303.29-2.85,252.3.89c-27.32,1.97-55.56,6.37-80.37,16.2-25.27,10.12-45.73,26.23-61.28,45.24-25.04,30.63-43.56,66.88-33.38,104.25,6.63,24.54,24.46,45.43,48.24,61.07,19.89,13.11,44.13,24.17,69.05,29.22.23,0,.34,0,.69-.09q.11,0,.23-.09c1.14-.56,2.86-2.44,4.8-4.87h0l.11-.09c2.06-2.72,3.77-5.53,4.34-6.28.57-.84,7.66-11.8,7.2-12.83h0l-.11-.09c-28.01-11.24-54.87-28.01-73.85-48.43-10.17-10.96-17.83-23.23-21.72-36.62-3.43-11.8-2.97-23.51-1.03-35.41h0v-.09c.69-2.25,1.14-4.5,1.71-6.74q.11-.66.11-.56v-.19c.23-.75.57-1.59.8-2.34,1.26-3.37,2.63-6.74,4.34-10.02.11-.28.23-.47.34-.75h0c2.52-2.53,4.8-5.15,7.43-7.59,23.89-21.64,56.82-30.44,90.89-35.03,35.67-4.78,72.94-5.06,107.69,3.84,28.24,7.21,53.39,20.42,73.74,37.93,24.58,21.26,40.36,46.93,54.3,73.53.23.47,3.09-2.62,3.54-3.09v-.09c2.29-2.62,4.46-5.53,6.4-8.34,2.06-2.81,4-5.81,5.6-8.8.69-1.12,1.83-2.72,1.49-4.03ZM187.71,35.36c-15.78,5.62-30.07,14.14-41.96,24.35-16.35,14.24-29.38,32.13-38.64,50.02-2.52,4.78-4.57,9.65-6.4,14.71-.11.19-.11.37-.23.47h0v.09h0c0,.09-.11.19-.11.28-.34.94-.57,1.78-.91,2.72-.46,1.78-.91,3.56-1.37,5.25v.09c-.11.47-.34,1.03-.34,1.5v.47h0c-.69,4.21-1.14,8.43-1.37,12.55-4.12-12.27-5.26-25.1-3.77-37.93.57-5.06,1.83-9.93,3.2-14.89.8-3,1.94-5.81,3.09-8.71.91-2.34,2.06-4.68,3.2-6.93v.09c.11-.19,1.14-1.97,1.71-3-1.26,1.31-2.63,2.72.46-.75-.11.09-.23.37-.46.75.46-.47.91-.94,1.14-1.22,1.37-1.59,2.86-3.09,4.34-4.59,4.46-4.4,9.49-8.43,14.75-12.27,9.83-7.02,20.69-13.11,32.35-17.8,22.29-8.9,47.67-13.02,72.25-15.17-14.06,2.44-28.01,5.34-40.93,9.93Z"/>
  </g>
  <g>
    <path class="cls-3" d="M1055.41,265.31c-4.69-19.76-21.38-38.59-42.76-48.52-35.1-16.39-75.91-20.98-115.24-14.52-32.58,5.43-65.96,18.26-90.43,36.9-.8.28-1.71,1.22-2.52,2.25-3.66,3.65-6.4,8.24-9.03,12.27-1.6,2.44-3.54,4.96-4.46,7.59v.28h0c-.23.56-.69,1.31-.34,1.59,0,.28.23.28.69-.09,36.58-14.71,79-23.98,119.92-21.45,27.44,1.69,52.13,9.37,75.68,20.7-.11-.09-.23-.19-.34-.28.34.19.57.28.91.47-.11-.09-.34-.19-.46-.28,11.78,8.06,21.84,19.3,25.15,31.75,1.71,6.28,1.03,12.36-1.03,18.55-2.4,2.06-5.14,3.93-7.77,5.62-6.17,3.93-13.03,7.21-20.01,10.21-7.2,3.18-13.26,5.15-20.35,7.4-25.15,7.96-51.56,12.08-77.74,16.86-1.37.28-2.97,2.34-3.54,3.09-2.4,2.72-4.46,5.53-6.52,8.43-.69.94-7.66,12.83-7.09,12.83,41.96,2.34,88.26.37,125.87-17.05,12.12-5.62,21.72-12.55,29.84-21.07.91-.66,2.4-2.44,2.63-2.72h0c9.6-11.24,17.61-21.82,24.12-34.84,5.6-11.52,7.66-23.7,4.8-35.97ZM1010.14,320.29c-.11.19-.23.37-.34.56h0s-.11.09-.11.19c0,0,0-.09.11-.19h0c0-.28.23-.47.34-.56ZM1034.49,321.14c-.69,1.03-1.26,1.59-.69.75h0c.34-.37.69-.84.91-1.12-.11.09-.23.28-.23.37ZM1039.18,304.65c-.46,4.96-1.83,9.55-3.77,14.14-.57.75-1.03,1.4-1.6,2.06h0l-.23.19c-1.71,1.22-3.32,2.81-5.03,4.12-1.49,1.03-2.86,2.06-4.34,3.09-6.17,4.03-13.15,7.4-20.35,10.3-7.32,3-14.98,5.25-22.75,7.21,8.8-4.78,15.89-10.58,21.95-17.14,3.43-1.78,6.86-7.96,8.69-10.68,2.17-3.18,4.69-6.46,7.43-10.58,2.17-3.37,4.23-6.84,6.06-10.3,3.43-6.65,5.72-13.96,5.03-21.17-.23-2.06-.57-4.03-1.14-5.99,7.32,10.49,11.32,22.57,10.06,34.75Z"/>
    <path class="cls-1" d="M987.39,262.5c-.11-.09-.34-.19-.46-.28-.11-.09-.23-.19-.34-.28.23.28.57.47.8.56Z"/>
    <path class="cls-1" d="M1009.8,320.76s-.11.09-.11.19q0-.09.11-.19h0Z"/>
  </g>
  <g>
    <path class="cls-3" d="M683.06,498.26c-2.29-.75-19.43,22.2-17.15,24.35,5.49,5.15,11.09,10.21,15.66,16.02,2.97,3.75,5.83,7.96,6.97,12.46v.19c-15.78,8.8-35.21,12.74-54.07,13.86h-.11.11c-.8-.37-3.89.09-4.8.09-4.46.09-9.03.28-13.49.28-12.46.09-25.15-.66-37.5-2.44-26.64-3.75-55.45-14.61-65.74-36.72-.11-.09-.23-.09-.46,0h0c-.91.56-3.2,3.09-3.2,3.09-1.14,1.31-2.29,2.62-3.32,4.03q-.11.09-.11.19c-.23.28-.46.56-.69.84-.23.28-.46.56-.69.84-.57.75-1.14,1.59-1.71,2.34-2.06,2.9-4,5.81-5.6,8.8-.34.66-1.03,1.59-1.37,2.53-.11.28-.11.56-.23.94v.09c-2.86,19.48,16.92,37.56,35.67,46.74,21.15,10.4,46.87,14.52,71.34,14.71,20.12.19,39.56-1.22,58.3-7.96,12.12-4.31,23.32-10.4,32.35-18.26,11.89-10.3,22.18-24.17,27.78-37.56,10.17-23.98-13.72-40.93-37.95-49.46ZM706.04,563.55c-2.4,1.97-4.8,3.84-7.55,5.62-10.17,6.37-21.84,11.05-34.07,14.05-8.57,2.06-17.15,3.09-25.84,3.56,19.78-3.75,38.76-11.33,50.64-25.01,4.23-4.87,9.03-10.49,12.35-16.39,2.4,3.47,4,7.31,4.57,11.52.34,2.25.34,4.5-.11,6.65Z"/>
    <path class="cls-3" d="M495.92,548.93c-.11.28-.11.56-.23.94v.09c0-.37,0-.66.23-1.03Z"/>
    <path class="cls-3" d="M504.61,535.16c-.57.75-1.14,1.59-1.71,2.34-2.06,2.9-4,5.81-5.6,8.8-.34.66-1.03,1.59-1.37,2.53,1.14-4.59,5.6-9.65,8.69-13.68Z"/>
    <path class="cls-3" d="M512.5,526.17c-.91.56-3.2,3.09-3.2,3.09-1.14,1.31-2.29,2.62-3.32,4.03,1.49-1.97,3.09-4.31,5.03-5.9,0,0,.91-.94,1.49-1.22Z"/>
    <path class="cls-3" d="M512.95,526.17c-.11-.09-.23-.09-.46,0,.23-.09.34-.19.34-.09l.11.09Z"/>
  </g>
  <g>
    <path class="cls-3" d="M199.37,450.77c-.23.09-.34.09-.57.19-22.86,6.28-48.47,7.4-72.02,3.84-23.89-3.56-45.16-12.36-64.82-23.79h0c-10.75-6.93-18.98-17.14-18.98-28.66,3.66-1.78,7.66-3.18,11.78-4.4,18.75-5.62,39.21-6.37,58.88-8.24,1.26-.09,3.09-2.53,3.54-3.09,2.4-2.62,4.46-5.53,6.52-8.43.57-.94,8.35-12.55,7.09-12.83-26.98-6.65-57.39-10.49-84.03-.66-12.35,4.5-20.46,12.64-27.67,21.73-7.89,9.93-15.55,20.98-18.06,32.78-9.49,44.4,49.27,71.37,95.12,75.68,17.83,1.69,36.13.19,53.16-4.59,11.89-3.37,24.69-8.24,33.84-15.45,3.09-2.44,5.49-5.53,7.66-8.62.69-1.03,1.14-1.87,1.71-2.62.46-.75,1.03-1.4,1.49-2.15,0-.09.11-.19.11-.19.23-.28.34-.56.57-.84.11-.28.34-.56.57-.75,0-.09.11-.19.23-.28.91-1.5,1.83-3,2.63-4.5,0-.47,1.26-3.47,1.26-4.12,0,.09,0,0,0,0ZM14.05,398.32c-1.49.84,1.14-1.97,0,0h0ZM25.6,426.14c0,1.5.23,3.09.46,4.5-6.29-8.71-9.6-18.73-8.69-29.22.11-2.06.46-4.21,1.03-6.28,2.86-2.06,5.83-3.84,9.26-5.43,7.2-3.18,14.98-5.15,23.09-6.18-2.29,1.87-4.34,3.84-6.29,6.09-6.29,7.12-12.12,15.17-16.01,23.42-1.94,4.12-2.63,8.15-2.86,12.55-.11.37,0,.47,0,.56Z"/>
    <path class="cls-2" d="M14.05,398.32h0c-1.49.84,1.14-1.97,0,0Z"/>
    <path class="cls-2" d="M190.68,466.23c-1.94,3.18-4.69,7.31-7.66,8.62,2.97-2.44,5.49-5.53,7.66-8.62Z"/>
    <path class="cls-2" d="M193.77,461.45c-1.03,1.59-2.06,3.18-3.2,4.78.69-1.03,1.14-1.87,1.71-2.62.57-.66,1.03-1.4,1.49-2.15Z"/>
    <path class="cls-2" d="M195.02,459.58c-.34.56-.69,1.12-1.14,1.69.23-.28.34-.56.57-.84.23-.28.46-.56.57-.84Z"/>
    <path class="cls-2" d="M199.37,450.77c-.23.09-.34.09-.57.19.34-.28.46-.28.57-.19Z"/>
    <path class="cls-2" d="M199.48,450.86c-.11,0-.11-.09,0,0v-.09.09Z"/>
    <path class="cls-2" d="M199.02,452.74c-.8,2.25-2.29,4.4-3.77,6.56.91-1.5,1.83-3,2.63-4.5.23-.37,1.37-3.37,1.49-3.93.23.47-.34,1.69-.34,1.87Z"/>
  </g>
</svg>